<svg xmlns="http://www.w3.org/2000/svg" aria-hidden="true" role="img" width="1em" height="1em" preserveAspectRatio="xMidYMid meet" viewBox="0 0 256 256"><path fill="currentColor" d="M208 56h-27.7l-13.6-20.4A7.9 7.9 0 0 0 160 32H96a7.9 7.9 0 0 0-6.7 3.6L75.7 56H48a24.1 24.1 0 0 0-24 24v112a24.1 24.1 0 0 0 24 24h160a24.1 24.1 0 0 0 24-24V80a24.1 24.1 0 0 0-24-24Zm8 136a8 8 0 0 1-8 8H48a8 8 0 0 1-8-8V80a8 8 0 0 1 8-8h32a7.9 7.9 0 0 0 6.7-3.6L100.3 48h55.4l13.6 20.4A7.9 7.9 0 0 0 176 72h32a8 8 0 0 1 8 8ZM128 88a44 44 0 1 0 44 44a44 44 0 0 0-44-44Zm0 72a28 28 0 1 1 28-28a28.1 28.1 0 0 1-28 28Z"/></svg>
