<svg xmlns="http://www.w3.org/2000/svg" aria-hidden="true" role="img" width="1em" height="1em" preserveAspectRatio="xMidYMid meet" viewBox="0 0 256 256"><path fill="currentColor" d="m211.7 132.3l12.2-66.9a7.7 7.7 0 0 0-1.8-6.5A7.9 7.9 0 0 0 216 56H54.7l-4.9-26.9A16 16 0 0 0 34.1 16H16a8 8 0 0 0 0 16h18.1l27.4 151a28 28 0 1 0 43.8 9h53.4a28 28 0 1 0 25.3-16H76.5l-4.4-24h116a24 24 0 0 0 23.6-19.7ZM92 204a12 12 0 1 1-12-12a12 12 0 0 1 12 12Zm104 0a12 12 0 1 1-12-12a12 12 0 0 1 12 12ZM57.6 72h148.8L196 129.4a8 8 0 0 1-7.9 6.6H69.2Z"/></svg>
