<svg xmlns="http://www.w3.org/2000/svg" aria-hidden="true" role="img" width="1em" height="1em" preserveAspectRatio="xMidYMid meet" viewBox="0 0 256 256"><path fill="currentColor" d="M232 96a16 16 0 0 0-16-16h-32V48a16 16 0 0 0-16-16H40a16 16 0 0 0-16 16v128a7.9 7.9 0 0 0 4.6 7.2a8.1 8.1 0 0 0 3.4.8a7.7 7.7 0 0 0 5-1.8L72 154v30a16 16 0 0 0 16 16h93.6l37.4 30.2a7.8 7.8 0 0 0 8.4 1a7.9 7.9 0 0 0 4.6-7.2ZM66.6 137.8L40 159.2V48h128v88H71.6a7.7 7.7 0 0 0-5 1.8Zm122.8 48a7.7 7.7 0 0 0-5-1.8H88v-32h80a16 16 0 0 0 16-16V96h32v111.2Z"/></svg>
